<svg width="45" height="42" viewBox="0 0 45 42" fill="none" xmlns="http://www.w3.org/2000/svg">
<path d="M7.40628 41.1885C7.42219 41.1888 7.43786 41.192 7.45238 41.1977C7.46689 41.2034 7.47995 41.2115 7.4908 41.2216L7.70892 41.4301C7.53961 41.5989 7.33035 41.7338 7.09546 41.8258C6.82039 41.9261 6.52394 41.9746 6.22572 41.9679C5.94548 41.973 5.66705 41.9278 5.40777 41.8353C5.17389 41.7503 4.96376 41.6226 4.79159 41.4609C4.61588 41.2932 4.48054 41.0967 4.39353 40.8828C4.29824 40.6445 4.25119 40.3936 4.25448 40.1413C4.25061 39.8873 4.30147 39.635 4.40443 39.3973C4.49968 39.1821 4.64335 38.9856 4.82704 38.8192C5.01321 38.6561 5.23592 38.5279 5.48139 38.4425C5.74992 38.3521 6.03588 38.307 6.32387 38.3098C6.59138 38.3042 6.85747 38.3453 7.10637 38.4307C7.32231 38.5121 7.52058 38.6251 7.69256 38.7647L7.50988 38.9874C7.49726 39.0031 7.48158 39.0168 7.46353 39.0277C7.44198 39.0406 7.41593 39.0464 7.38992 39.0443C7.36162 39.0426 7.33434 39.0344 7.31085 39.0206L7.2127 38.9614L7.07637 38.8856C7.01753 38.8574 6.95649 38.8329 6.8937 38.8121C6.81283 38.787 6.72989 38.7672 6.64559 38.7529C6.5386 38.7358 6.42992 38.7278 6.32114 38.7292C6.11376 38.7269 5.90796 38.7608 5.71587 38.8287C5.53672 38.8916 5.37501 38.9869 5.24146 39.1083C5.10551 39.2373 5.00074 39.3888 4.93337 39.5537C4.85658 39.7423 4.81874 39.9412 4.82158 40.1413C4.81831 40.3444 4.85615 40.5465 4.93337 40.7383C4.9999 40.9018 5.10272 41.0523 5.23601 41.1814C5.36088 41.3017 5.51567 41.3956 5.6886 41.4562C5.86657 41.5203 6.0576 41.5525 6.25025 41.551C6.36154 41.5524 6.47278 41.5461 6.58288 41.532C6.76267 41.5129 6.93513 41.4587 7.08728 41.3733C7.16359 41.3295 7.23563 41.2804 7.30267 41.2264C7.3307 41.2031 7.36756 41.1896 7.40628 41.1885Z" fill="#AFB1B8"/>
<path d="M13.7044 40.1408C13.7078 40.3922 13.6579 40.642 13.5572 40.8776C13.4684 41.0914 13.3284 41.2863 13.1465 41.4497C12.9646 41.613 12.745 41.741 12.5021 41.8252C11.9683 42.0022 11.3782 42.0022 10.8444 41.8252C10.603 41.7397 10.3848 41.6114 10.2037 41.4486C10.0219 41.2822 9.88095 41.0856 9.78927 40.8705C9.59287 40.3933 9.59287 39.8718 9.78927 39.3946C9.88228 39.1794 10.0231 38.9822 10.2037 38.8142C10.3864 38.6564 10.6045 38.533 10.8444 38.4517C11.3775 38.2716 11.969 38.2716 12.5021 38.4517C12.7443 38.5372 12.9634 38.6655 13.1455 38.8284C13.325 38.9931 13.465 39.1872 13.5572 39.3993C13.6582 39.6366 13.7081 39.8879 13.7044 40.1408ZM13.1319 40.1408C13.1362 39.9398 13.1011 39.7395 13.0283 39.5486C12.9672 39.385 12.8679 39.2342 12.7366 39.1056C12.6087 38.9839 12.4513 38.8884 12.2758 38.826C11.8879 38.6965 11.4586 38.6965 11.0707 38.826C10.8952 38.8884 10.7378 38.9839 10.6099 39.1056C10.4768 39.2335 10.3764 39.3845 10.3155 39.5486C10.1768 39.9342 10.1768 40.3475 10.3155 40.7331C10.377 40.897 10.4773 41.0479 10.6099 41.1761C10.7379 41.2971 10.8953 41.3918 11.0707 41.4533C11.4593 41.5795 11.8872 41.5795 12.2758 41.4533C12.4512 41.3918 12.6086 41.2971 12.7366 41.1761C12.8673 41.0471 12.9665 40.8964 13.0283 40.7331C13.1015 40.5423 13.1365 40.342 13.1319 40.1408Z" fill="#AFB1B8"/>
<path d="M18.0013 40.7617L18.0586 40.8944C18.0804 40.847 18.0995 40.8044 18.1213 40.7617C18.1421 40.7172 18.1657 40.6737 18.1922 40.6315L19.5854 38.4309C19.6127 38.393 19.6372 38.3693 19.6645 38.3622C19.7015 38.3524 19.7403 38.3484 19.779 38.3503H20.1907V41.9295H19.7026V39.2978C19.7026 39.2647 19.7026 39.2268 19.7026 39.1865C19.7 39.1455 19.7 39.1044 19.7026 39.0633L18.3012 41.2947C18.2834 41.3281 18.255 41.3564 18.2192 41.3761C18.1834 41.3959 18.1418 41.4063 18.0995 41.406H18.0204C17.9779 41.4066 17.9362 41.3963 17.9004 41.3765C17.8646 41.3568 17.8362 41.3283 17.8186 41.2947L16.3763 39.0491C16.3763 39.0918 16.3763 39.1344 16.3763 39.177C16.3763 39.2197 16.3763 39.2576 16.3763 39.2907V41.9224H15.9047V38.3503H16.3164C16.355 38.3484 16.3938 38.3524 16.4309 38.3622C16.4647 38.3767 16.4916 38.401 16.5072 38.4309L17.9304 40.6338C17.9584 40.6745 17.9821 40.7174 18.0013 40.7617Z" fill="#AFB1B8"/>
<path d="M23.2443 40.5839V41.9246H22.699V38.3502H23.915C24.1446 38.3464 24.3735 38.3727 24.5939 38.4284C24.7704 38.4718 24.9341 38.5478 25.0738 38.651C25.1949 38.7478 25.2883 38.8679 25.3464 39.0016C25.4108 39.1474 25.4423 39.3026 25.4391 39.4588C25.4415 39.6155 25.4072 39.7711 25.3383 39.9159C25.2727 40.0531 25.172 40.1754 25.0438 40.2736C24.9039 40.3812 24.7395 40.4619 24.5612 40.5105C24.3489 40.5694 24.1269 40.5974 23.9041 40.5934L23.2443 40.5839ZM23.2443 40.2002H23.9041C24.0475 40.2018 24.1901 40.1834 24.3267 40.1457C24.4394 40.1127 24.5433 40.0604 24.6321 39.9917C24.714 39.9262 24.7775 39.8451 24.8175 39.7549C24.8621 39.6594 24.8844 39.5571 24.8829 39.454C24.8893 39.3547 24.8706 39.2553 24.8282 39.1628C24.7859 39.0704 24.7208 38.9871 24.6376 38.9187C24.4293 38.7774 24.1676 38.709 23.9041 38.7268H23.2443V40.2002Z" fill="#AFB1B8"/>
<path d="M30.5731 41.9294H30.1423C30.0991 41.9309 30.0566 41.9191 30.0223 41.8963C29.9914 41.874 29.9671 41.8455 29.9514 41.8133L29.5806 40.9487H27.7185L27.334 41.8133C27.3199 41.845 27.2964 41.8727 27.2659 41.8939C27.2312 41.9181 27.1877 41.9308 27.1432 41.9294H26.7124L28.3483 38.3499H28.9154L30.5731 41.9294ZM27.8739 40.6004H29.4116L28.7627 39.1435C28.7131 39.0339 28.6721 38.9215 28.64 38.8071L28.5773 38.9942C28.5582 39.0511 28.5364 39.1032 28.5173 39.1458L27.8739 40.6004Z" fill="#AFB1B8"/>
<path d="M32.9288 38.3665C32.9614 38.382 32.9894 38.4039 33.0106 38.4305L35.3962 41.1287C35.3962 41.0861 35.3962 41.0435 35.3962 41.0032C35.3962 40.9629 35.3962 40.9226 35.3962 40.8847V38.3499H35.8843V41.9294H35.6116C35.5729 41.9305 35.5345 41.9231 35.4998 41.9081C35.4662 41.8911 35.4365 41.8685 35.4126 41.8418L33.0297 39.1459C33.0323 39.1869 33.0323 39.2281 33.0297 39.2691C33.0297 39.3094 33.0297 39.3449 33.0297 39.3781V41.9294H32.5416V38.3499H32.8306C32.8644 38.3491 32.8979 38.3548 32.9288 38.3665Z" fill="#AFB1B8"/>
<path d="M39.9031 40.5058V41.9272H39.3578V40.5058L37.85 38.3501H38.3381C38.3801 38.3479 38.4217 38.3588 38.4553 38.3809C38.485 38.4039 38.5099 38.4311 38.5289 38.4614L39.4723 39.852C39.5105 39.9112 39.5432 39.9657 39.5705 40.0178C39.5977 40.07 39.6195 40.1197 39.6386 40.1695L39.7095 40.0155C39.736 39.9592 39.7669 39.9045 39.8022 39.852L40.7319 38.452C40.7515 38.424 40.7753 38.3985 40.8028 38.3761C40.8352 38.3516 40.8772 38.3389 40.9201 38.3406H41.4136L39.9031 40.5058Z" fill="#AFB1B8"/>
<path d="M17.7314 32.3431C17.9686 32.3692 18.2086 32.3905 18.4512 32.4094C22.1301 30.9796 25.2422 28.6393 27.3987 25.6812C29.5552 22.723 30.6603 19.2782 30.5759 15.7774L26.5216 12.2548C27.346 15.9821 26.9604 19.8352 25.408 23.3829C23.8555 26.9306 21.1976 30.0331 17.7314 32.3431Z" fill="#AFB1B8"/>
<path d="M16.2837 32.1793L16.3928 32.1982C20.0966 29.8964 22.9205 26.682 24.4993 22.9708C26.078 19.2597 26.3389 15.2223 25.2483 11.3809L19.4737 6.36371C21.8094 10.4877 22.7495 15.1031 22.1848 19.6731C21.6201 24.2432 19.5737 28.58 16.2837 32.1793Z" fill="#AFB1B8"/>
<path d="M35.8679 19.9136C34.8868 23.7602 32.5041 27.2293 29.0735 29.8059C28.0716 30.5626 26.9909 31.2366 25.8454 31.8194C28.6389 31.1061 31.2065 29.8448 33.3502 28.133C35.494 26.4212 37.1566 24.3044 38.21 21.9461L35.8679 19.9136Z" fill="#AFB1B8"/>
<path d="M34.9491 19.3472L31.6146 16.45C31.5509 19.7531 30.4701 22.9811 28.4846 25.7985C26.4991 28.6158 23.6814 30.9198 20.3243 32.4708H20.3406C21.0888 32.4706 21.8362 32.4318 22.5791 32.3547C25.7165 31.2421 28.488 29.472 30.6465 27.2023C32.8049 24.9326 34.2831 22.234 34.9491 19.3472Z" fill="#AFB1B8"/>
<path d="M16.7663 4.24794L12.7883 0.786987C9.23222 1.98094 6.1738 4.07987 4.01337 6.80906C1.85294 9.53825 0.69115 12.7706 0.680054 16.0829H0.680054C0.693382 19.743 2.11126 23.2947 4.70929 26.1758C7.30731 29.057 10.9371 31.103 15.0241 31.9901C18.6725 28.128 20.8086 23.3558 21.1219 18.3668C21.4352 13.3778 19.9094 8.43198 16.7663 4.24794Z" fill="#AFB1B8"/>
<path d="M44.1401 18.8144C44.1257 14.4719 42.1339 10.3108 38.5997 7.24022C35.0656 4.16961 30.2764 2.43902 25.2784 2.42652C22.9688 2.42444 20.6789 2.79473 18.5249 3.51857L42.8805 24.6797C43.7144 22.8091 44.1415 20.8203 44.1401 18.8144Z" fill="#AFB1B8"/>
</svg>
