<svg width="40" height="50" viewBox="0 0 40 50" fill="none" xmlns="http://www.w3.org/2000/svg">
<path fill-rule="evenodd" clip-rule="evenodd" d="M17.1136 3.0215H16.977C16.7671 3.00878 16.5571 3.0037 16.3471 2.99861H16.3471H16.3269H15.8918C15.4946 2.99861 15.0898 3.00878 14.6876 3.02912C14.6573 3.02692 14.6269 3.02692 14.5966 3.02912C10.9522 3.23561 7.38171 4.14649 4.08049 5.7119L3.6479 5.92042V28.0616L4.65979 27.7183C5.54773 27.4131 6.49384 27.1385 7.47285 26.8842C10.1193 26.2048 12.8367 25.8437 15.568 25.8085V28.7176C15.2062 28.7202 14.8546 28.7303 14.503 28.7481H14.4195C12.3175 28.8634 10.2317 29.1837 8.19129 29.7043C5.60716 30.3512 3.11433 31.3226 0.771606 32.5956V4.19886C3.20469 2.77973 5.82533 1.71385 8.55557 1.03294C10.9527 0.414027 13.4169 0.0962821 15.8918 0.0869751H16.3193C16.8303 0.0996897 17.3287 0.122576 17.7967 0.158177C19.0297 0.244751 20.2528 0.439603 21.4521 0.740503V3.60382C20.2874 3.33248 19.1032 3.15393 17.9105 3.06981C17.8863 3.06777 17.8621 3.0657 17.8379 3.06363C17.5911 3.04258 17.344 3.0215 17.1136 3.0215ZM22.1528 5.94836C22.7877 5.99667 23.4455 6.01956 24.1108 6.01956C26.7125 6.01005 29.3031 5.67781 31.8239 5.03037C34.4068 4.38094 36.8986 3.40875 39.2411 2.13654V30.0272C36.8067 31.4455 34.1853 32.5113 31.4546 33.1931C29.0571 33.8097 26.5931 34.1265 24.1184 34.1365C22.2433 34.1517 20.3737 33.9313 18.553 33.4805V5.40926C18.983 5.50844 19.4257 5.59998 19.876 5.67627C20.6147 5.80087 21.3939 5.89242 22.1528 5.94836ZM36.3471 6.16451L35.3352 6.50526C34.4042 6.81804 33.4657 7.09775 32.5221 7.34696C29.7749 8.05293 26.9514 8.41507 24.1158 8.42515C23.4556 8.42515 22.8485 8.40735 22.2616 8.36921L21.4546 8.31581V28.4048V31.0927L22.1477 31.1537C22.7903 31.2096 23.4531 31.2376 24.1209 31.2376C26.3544 31.2281 28.5781 30.9403 30.7412 30.3806C32.5223 29.9339 34.2552 29.3112 35.9145 28.5218L36.3471 28.3133V6.16451Z" fill="#AFB1B8"/>
<path d="M2.73713 42.2994C2.59166 42.1485 2.41629 42.0301 2.22236 41.9516C2.02844 41.8732 1.82029 41.8366 1.61141 41.8442C1.38879 41.8413 1.16781 41.8828 0.961267 41.9663C0.771901 42.0417 0.599767 42.1551 0.455322 42.2994C0.312451 42.4442 0.201292 42.6175 0.128988 42.808C0.0496792 43.0077 0.0101425 43.2211 0.0126205 43.4361V47.2301C0.00357283 47.4975 0.0545882 47.7634 0.161874 48.0083C0.251433 48.2027 0.380725 48.376 0.541333 48.5168C0.692953 48.6445 0.870978 48.7366 1.06246 48.7864C1.24694 48.8382 1.43755 48.8648 1.62911 48.8652C1.84041 48.8673 2.04953 48.8222 2.24131 48.733C2.43095 48.65 2.60277 48.5308 2.74725 48.3821C2.88814 48.2347 3.00052 48.0622 3.07865 47.8735C3.15973 47.6822 3.20105 47.4762 3.20007 47.2683V46.8436H2.20842V47.1818C2.21137 47.2973 2.1916 47.4122 2.15024 47.52C2.11794 47.6008 2.06877 47.6736 2.00604 47.7336C1.94461 47.7833 1.87416 47.8204 1.79861 47.843C1.73164 47.8653 1.6617 47.8773 1.59117 47.8786C1.50263 47.8889 1.41296 47.8755 1.33122 47.8398C1.24948 47.804 1.17858 47.7473 1.1257 47.6751C1.03222 47.5227 0.986395 47.3455 0.994154 47.1666V43.6294C0.988002 43.4332 1.02969 43.2385 1.11558 43.0623C1.16706 42.9822 1.2399 42.9183 1.32578 42.8778C1.41166 42.8374 1.50713 42.822 1.60129 42.8334C1.68676 42.8304 1.7717 42.8482 1.8488 42.8854C1.92591 42.9226 1.99289 42.9781 2.04399 43.047C2.15496 43.1927 2.21298 43.3722 2.20842 43.5556V43.8837H3.18995V43.4971C3.19195 43.2701 3.15073 43.0449 3.06853 42.8334C2.99527 42.6347 2.88251 42.453 2.73713 42.2994Z" fill="#AFB1B8"/>
<path d="M8.62892 42.2561C8.31271 41.9891 7.91362 41.8416 7.50066 41.8391C7.29868 41.84 7.09838 41.8761 6.9087 41.9459C6.71613 42.0149 6.53841 42.1202 6.38505 42.2561C6.22076 42.4038 6.08968 42.585 6.00053 42.7876C5.90063 43.0194 5.85146 43.27 5.85634 43.5225V47.1614C5.8495 47.4174 5.89873 47.6718 6.00053 47.9065C6.09028 48.1022 6.22152 48.2758 6.38505 48.4151C6.53665 48.5558 6.71468 48.6648 6.9087 48.7355C7.09838 48.8053 7.29868 48.8414 7.50066 48.8423C7.70269 48.8419 7.90307 48.8058 8.09262 48.7355C8.28995 48.6638 8.47195 48.5551 8.62892 48.4151C8.7871 48.2732 8.91454 48.1 9.00332 47.9065C9.10512 47.6718 9.15435 47.4174 9.14751 47.1614V43.5225C9.15239 43.27 9.10322 43.0194 9.00332 42.7876C8.91505 42.5871 8.78775 42.4064 8.62892 42.2561ZM8.16598 47.1614C8.17434 47.2584 8.16095 47.356 8.1268 47.4471C8.09265 47.5382 8.03861 47.6205 7.96866 47.6878C7.83768 47.7977 7.67251 47.8578 7.50193 47.8578C7.33135 47.8578 7.16617 47.7977 7.03519 47.6878C6.96524 47.6205 6.9112 47.5382 6.87705 47.4471C6.8429 47.356 6.82952 47.2584 6.83787 47.1614V43.5225C6.82952 43.4255 6.8429 43.3279 6.87705 43.2368C6.9112 43.1457 6.96524 43.0635 7.03519 42.9961C7.16617 42.8863 7.33135 42.8261 7.50193 42.8261C7.67251 42.8261 7.83768 42.8863 7.96866 42.9961C8.03861 43.0635 8.09265 43.1457 8.1268 43.2368C8.16095 43.3279 8.17434 43.4255 8.16598 43.5225V47.1614Z" fill="#AFB1B8"/>
<path d="M16.3673 48.7864V41.8977H15.4136L14.1614 45.5442H14.1437L12.8813 41.8977H11.9377V48.7864H12.9218V44.5957H12.9395L13.9033 47.5582H14.3941L15.3655 44.5957H15.3832V48.7864H16.3673Z" fill="#AFB1B8"/>
<path d="M21.9581 42.3807C21.8065 42.2107 21.6153 42.0814 21.4015 42.0043C21.1712 41.9294 20.9302 41.8933 20.6881 41.8975H19.226V48.7863H20.2075V46.0959H20.7134C21.0197 46.1098 21.3244 46.0451 21.5988 45.9077C21.822 45.7838 22.0081 45.602 22.1377 45.3813C22.2512 45.1981 22.3277 44.9942 22.3628 44.7812C22.4014 44.522 22.4192 44.2601 22.4159 43.998C22.4255 43.6672 22.3932 43.3365 22.3198 43.0139C22.2543 42.7755 22.1299 42.5577 21.9581 42.3807ZM21.4521 44.4812C21.4479 44.6059 21.4168 44.7282 21.361 44.8397C21.3049 44.9456 21.2162 45.0304 21.1081 45.0813C20.9627 45.1463 20.8041 45.1759 20.6451 45.1677H20.1974V42.8257H20.7033C20.8557 42.8182 21.0075 42.8479 21.146 42.9122C21.2475 42.9704 21.3281 43.0594 21.3762 43.1665C21.4299 43.2875 21.4591 43.418 21.4622 43.5504C21.4622 43.6954 21.4622 43.848 21.4622 44.0082C21.4622 44.1684 21.4723 44.3337 21.4622 44.4812H21.4521Z" fill="#AFB1B8"/>
<path d="M26.6077 41.8977H25.8032L24.2854 48.7864H25.2669L25.5553 47.3065H26.8935L27.1819 48.7864H28.1635L26.6077 41.8977ZM25.702 46.3681L26.1852 43.871H26.2029L26.6836 46.3681H25.702Z" fill="#AFB1B8"/>
<path d="M32.9497 46.0477H32.932L31.4496 41.8977H30.506V48.7864H31.4875V44.644H31.5078L33.0079 48.7864H33.9312V41.8977H32.9497V46.0477Z" fill="#AFB1B8"/>
<path d="M38.9476 41.8977L38.1583 44.6364H38.1381L37.3488 41.8977H36.3091L37.6574 45.8748V48.7864H38.639V45.8748L39.9873 41.8977H38.9476Z" fill="#AFB1B8"/>
</svg>
