<svg width="63" height="47" viewBox="0 0 63 47" fill="none" xmlns="http://www.w3.org/2000/svg">
<path d="M4.7569 38.8221C5.00058 39.0983 5.13038 39.4441 5.12358 39.7991C5.13601 40.0307 5.0914 40.2618 4.99304 40.4754C4.89469 40.689 4.74511 40.8797 4.55539 41.0332C4.08201 41.3605 3.49555 41.5205 2.90369 41.4838H0V35.2924H2.84423C3.40566 35.2582 3.96263 35.4036 4.41995 35.7037C4.60363 35.8445 4.74908 36.0224 4.84482 36.2235C4.94055 36.4245 4.98396 36.6431 4.97162 36.8622C4.98831 37.2037 4.87115 37.5395 4.64128 37.8089C4.42059 38.0549 4.1156 38.2254 3.77579 38.2928C4.16101 38.3572 4.50873 38.5448 4.7569 38.8221ZM1.35109 37.8875H2.56674C2.84303 37.9062 3.11743 37.8332 3.33974 37.6819C3.43101 37.6061 3.50203 37.5122 3.54728 37.4073C3.59254 37.3024 3.61082 37.1893 3.60071 37.0769C3.60929 36.9649 3.59063 36.8526 3.54607 36.748C3.50151 36.6434 3.43217 36.5491 3.34304 36.472C3.11408 36.3164 2.83115 36.2422 2.54692 36.2633H1.35109V37.8875ZM3.45866 40.2619C3.55623 40.1843 3.63292 40.0872 3.68277 39.9781C3.73262 39.869 3.75428 39.7508 3.74606 39.6328C3.7535 39.5133 3.73085 39.3939 3.67988 39.2838C3.6289 39.1737 3.55095 39.0757 3.45205 38.9976C3.21421 38.8361 2.9217 38.7569 2.6262 38.7738H1.35109V40.4766H2.64272C2.93345 40.492 3.22122 40.4163 3.45866 40.2619Z" fill="#AFB1B8"/>
<path d="M10.5709 41.4839L8.98857 39.0641H8.39396V41.4839H7.03296V35.2924H9.60961C10.2591 35.2509 10.9012 35.4393 11.4034 35.8187C11.7635 36.1547 11.9808 36.5975 12.0159 37.0672C12.051 37.537 11.9018 38.0027 11.595 38.3806C11.2771 38.714 10.8428 38.9364 10.3661 39.0097L12.0508 41.4839H10.5709ZM8.39396 38.2203H9.50721C10.2802 38.2203 10.6667 37.9077 10.6667 37.2826C10.6746 37.155 10.6534 37.0272 10.6045 36.9074C10.5556 36.7877 10.48 36.6785 10.3826 36.5869C10.1383 36.4009 9.82374 36.3107 9.50721 36.3359H8.38075L8.39396 38.2203Z" fill="#AFB1B8"/>
<path d="M18.0102 40.2376H15.2981L14.8191 41.4837H13.392L15.8828 35.3618H17.4255L19.9063 41.4837H18.4793L18.0102 40.2376ZM17.6468 39.2999L16.6558 36.6866L15.6648 39.2999H17.6468Z" fill="#AFB1B8"/>
<path d="M27.3224 41.4838H25.9713L22.9421 37.2735V41.4838H21.5943V35.2924H22.9421L25.9713 39.5269V35.2924H27.3224V41.4838Z" fill="#AFB1B8"/>
<path d="M35.0326 40.0018C34.7532 40.4692 34.3276 40.8495 33.8103 41.0937C33.2222 41.3657 32.5695 41.4998 31.9109 41.4839H29.506V35.2924H31.9109C32.5684 35.2767 33.2202 35.4075 33.8103 35.6735C34.3275 35.9122 34.7536 36.2886 35.0326 36.7533C35.3107 37.2569 35.4556 37.8133 35.4556 38.3776C35.4556 38.9418 35.3107 39.4982 35.0326 40.0018ZM33.4866 39.8536C33.8722 39.4423 34.0842 38.9181 34.0842 38.376C34.0842 37.834 33.8722 37.3098 33.4866 36.8985C33.0205 36.5259 32.4127 36.3368 31.7952 36.3722H30.8571V40.3799H31.7952C32.4127 40.4153 33.0205 40.2261 33.4866 39.8536Z" fill="#AFB1B8"/>
<path d="M18.8558 0.853638C18.8558 0.853638 36.2945 6.88177 35.9245 15.6049V30.3591C35.9245 30.3591 18.4991 24.328 18.8624 15.6049L18.8558 0.853638Z" fill="#AFB1B8"/>
<path d="M51.4603 26.9049C54.7538 24.8296 58.5633 23.5442 62.5399 23.1664V18.5478C57.9579 20.1648 54.0709 23.0967 51.4603 26.9049Z" fill="#AFB1B8"/>
<path d="M49.4816 28.2964C52.1773 23.3265 56.8505 19.4914 62.54 17.58V4.27155C62.54 4.27155 37.705 12.8585 38.2303 25.2808V46.287C38.2303 46.287 39.3369 45.9029 41.0778 45.183C41.0778 44.5115 41.0778 43.834 41.1571 43.1535C41.6711 37.3865 44.6654 32.0424 49.4816 28.2964Z" fill="#AFB1B8"/>
<path d="M47.1197 36.1C47.2502 34.6432 47.5413 33.2021 47.9885 31.799C44.9896 35.034 43.1734 39.0484 42.7956 43.2775C42.7592 43.6768 42.7394 44.076 42.7295 44.4874C44.14 43.8673 45.7818 43.093 47.5062 42.1826C47.0662 40.1817 46.936 38.1341 47.1197 36.1Z" fill="#AFB1B8"/>
<path d="M48.1075 36.1756C47.9421 38.0159 48.0454 39.8682 48.4147 41.6835C55.1999 37.9662 62.8241 32.2224 62.5301 25.2808V24.6759C57.6824 25.1726 53.1468 27.1129 49.6204 30.1989C48.7948 32.1113 48.2849 34.1257 48.1075 36.1756Z" fill="#AFB1B8"/>
</svg>
