<svg width="94" height="45" viewBox="0 0 94 45" fill="none" xmlns="http://www.w3.org/2000/svg">
<path d="M47.425 21.4952C46.9819 20.9054 46.7699 20.2083 46.8203 19.5066V16.6234C46.8203 15.7396 47.0207 15.0679 47.4216 14.6084C47.8224 14.1489 48.511 13.9201 49.4871 13.9221C50.4044 13.9221 51.0555 14.1176 51.4405 14.5087C51.8605 15.0077 52.0648 15.6178 52.018 16.2333V16.9108H50.3772V16.2245C50.383 15.9999 50.3671 15.7752 50.3296 15.5528C50.306 15.4008 50.2234 15.2602 50.0952 15.154C49.9267 15.0394 49.7145 14.9839 49.5007 14.9985C49.2759 14.984 49.0529 15.0426 48.8756 15.1628C48.7327 15.2804 48.6374 15.4347 48.6038 15.6027C48.5567 15.838 48.5351 16.0766 48.5393 16.3154V19.8146C48.5134 20.1521 48.5858 20.4899 48.7499 20.7971C48.8315 20.9011 48.9448 20.9835 49.0774 21.0353C49.2099 21.087 49.3564 21.1061 49.5007 21.0904C49.7109 21.1054 49.9195 21.0485 50.0816 20.9321C50.2153 20.8175 50.3013 20.668 50.3262 20.5068C50.3645 20.2746 50.3816 20.0402 50.3772 19.8058V19.096H52.018V19.7442C52.0641 20.3857 51.8648 21.0226 51.4507 21.5568C51.0736 21.985 50.4315 22.1991 49.4871 22.1991C48.5427 22.1991 47.8292 21.9704 47.425 21.4952Z" fill="#AFB1B8"/>
<path d="M54.2569 21.5245C53.8424 21.0758 53.6352 20.4217 53.6352 19.5565V16.5237C53.6352 15.6672 53.8424 15.019 54.2569 14.5791C54.6713 14.1391 55.3644 13.9201 56.3359 13.9221C57.3007 13.9221 57.9904 14.1411 58.4048 14.5791C58.8193 15.019 59.0299 15.6672 59.0299 16.5237V19.5565C59.0299 20.4129 58.8193 21.0699 58.398 21.5216C57.9768 21.9733 57.2906 22.1991 56.3359 22.1991C55.3813 22.1991 54.6747 21.9704 54.2569 21.5245ZM57.1003 20.7971C57.2487 20.516 57.3163 20.2081 57.2974 19.8996V16.1864C57.3164 15.8839 57.2499 15.5819 57.1037 15.3065C57.0205 15.2003 56.9043 15.1166 56.7686 15.0647C56.6328 15.0128 56.4829 14.995 56.3359 15.0132C56.1885 14.9954 56.0383 15.0135 55.9021 15.0653C55.7659 15.1171 55.6491 15.2006 55.5648 15.3065C55.4154 15.5811 55.3477 15.8835 55.3678 16.1864V19.9172C55.3471 20.2258 55.4148 20.5341 55.5648 20.8147C55.6604 20.9094 55.7785 20.9852 55.9109 21.0371C56.0433 21.0891 56.1871 21.116 56.3326 21.116C56.478 21.116 56.6218 21.0891 56.7542 21.0371C56.8866 20.9852 57.0047 20.9094 57.1003 20.8147V20.7971Z" fill="#AFB1B8"/>
<path d="M61.0035 14.0106H62.7701L64.0984 19.6062L65.4573 14.0106H67.1763L67.3496 22.0873H66.079L65.9431 16.474L64.6318 22.0873H63.6126L62.2537 16.4535L62.128 22.0873H60.8439L61.0035 14.0106Z" fill="#AFB1B8"/>
<path d="M69.3302 14.0106H72.0819C73.6673 14.0106 74.4599 14.775 74.4599 16.3039C74.4599 17.7684 73.6254 18.4996 71.9562 18.4976H71.0186V22.0873H69.32L69.3302 14.0106ZM71.6811 17.4624C71.8489 17.4808 72.0193 17.4675 72.1806 17.4234C72.3419 17.3794 72.4902 17.3056 72.6153 17.2072C72.8101 16.9344 72.896 16.6141 72.8599 16.2952C72.8688 16.0488 72.8414 15.8024 72.7783 15.562C72.7541 15.4817 72.7116 15.4063 72.6533 15.3404C72.5949 15.2744 72.522 15.2191 72.4386 15.1778C72.2028 15.0801 71.9422 15.0357 71.6811 15.0487H71.022V17.4624H71.6811Z" fill="#AFB1B8"/>
<path d="M76.9094 14.0106H78.7337L80.6055 22.0873H79.0225L78.6522 20.225H77.0249L76.6444 22.0873H75.0376L76.9094 14.0106ZM78.4687 19.2895L77.8334 15.8992L77.1982 19.2895H78.4687Z" fill="#AFB1B8"/>
<path d="M82.1173 14.0106H83.3063L85.5825 18.6179V14.0106H86.9923V22.0873H85.861L83.5713 17.2776V22.0873H82.1139L82.1173 14.0106Z" fill="#AFB1B8"/>
<path d="M90.2945 19.0077L88.4022 14.0219H89.9955L91.1506 17.2245L92.2343 14.0219H93.7936L91.9251 19.0077V22.0872H90.2945V19.0077Z" fill="#AFB1B8"/>
<path d="M50.0477 25.6185V26.0409H48.6617V29.3228H48.0807V26.0409H46.6879V25.6185H50.0477Z" fill="#AFB1B8"/>
<path d="M54.3927 29.3231H53.9442C53.8987 29.3256 53.8538 29.313 53.8185 29.2879C53.7846 29.2664 53.7587 29.2369 53.7438 29.2029L53.3429 28.323H51.4201L51.0192 29.2029C51.0078 29.2397 50.9869 29.2738 50.958 29.3026C50.9225 29.3271 50.8778 29.3397 50.8324 29.3378H50.3839L52.0825 25.6337H52.6737L54.3927 29.3231ZM51.5797 27.9476H53.1833L52.5038 26.4402C52.4537 26.3262 52.4117 26.2096 52.3781 26.0912C52.3543 26.1616 52.3339 26.229 52.3136 26.2877L52.2524 26.4431L51.5797 27.9476Z" fill="#AFB1B8"/>
<path d="M57.3211 28.9593C57.4275 28.9641 57.5341 28.9641 57.6404 28.9593C57.7323 28.9511 57.8232 28.9364 57.9122 28.9153C57.9954 28.8977 58.0772 28.8751 58.1568 28.8478C58.2316 28.8214 58.3063 28.7891 58.3844 28.7569V27.9239H57.705C57.6882 27.9247 57.6714 27.9225 57.6556 27.9174C57.6398 27.9124 57.6254 27.9046 57.6133 27.8945C57.6021 27.8862 57.5933 27.8758 57.5874 27.8641C57.5815 27.8524 57.5787 27.8398 57.5793 27.8271V27.5425H58.8974V28.9622C58.7898 29.0287 58.6762 29.0875 58.5577 29.1382C58.4366 29.1898 58.3104 29.232 58.1806 29.2643C58.0417 29.2996 57.8996 29.3251 57.7559 29.3406C57.5912 29.3564 57.4257 29.3642 57.26 29.3641C56.967 29.3662 56.6763 29.3194 56.4038 29.2262C56.1495 29.1379 55.9184 29.0062 55.7244 28.839C55.5353 28.6701 55.3864 28.4708 55.2862 28.2524C55.1791 28.0068 55.1261 27.7462 55.1299 27.4839C55.1263 27.2199 55.1781 26.9576 55.2828 26.7095C55.3805 26.49 55.5297 26.2903 55.721 26.1229C55.9149 25.9562 56.1461 25.8255 56.4005 25.7386C56.6914 25.6441 57.0001 25.5974 57.3109 25.6008C57.4691 25.6006 57.627 25.6114 57.7831 25.633C57.9212 25.6524 58.0567 25.6839 58.1874 25.7269C58.3062 25.7654 58.4201 25.8146 58.5271 25.8735C58.6312 25.9314 58.7301 25.9962 58.8227 26.0671L58.6596 26.2959C58.6468 26.3168 58.6278 26.3344 58.6045 26.3468C58.5812 26.3591 58.5545 26.3659 58.5271 26.3663C58.4895 26.3653 58.453 26.3551 58.4218 26.337C58.3708 26.3135 58.3165 26.2842 58.2553 26.249C58.1831 26.2099 58.1069 26.1765 58.0277 26.1493C57.9265 26.1142 57.8219 26.0867 57.7152 26.0671C57.5729 26.0445 57.4284 26.0337 57.2837 26.0349C57.0596 26.0327 56.8371 26.0676 56.6281 26.1375C56.439 26.203 56.2686 26.3031 56.1287 26.4309C55.9879 26.564 55.8803 26.7208 55.8127 26.8914C55.661 27.2926 55.661 27.725 55.8127 28.1262C55.8871 28.3005 56.0028 28.4593 56.1525 28.5926C56.2918 28.7197 56.4609 28.8197 56.6485 28.8859C56.8645 28.95 57.0934 28.9749 57.3211 28.9593Z" fill="#AFB1B8"/>
<path d="M62.7362 28.9005H64.5911V29.3228H62.1689V25.6185H62.7498L62.7362 28.9005Z" fill="#AFB1B8"/>
<path d="M66.5208 29.3228H65.9398V25.6185H66.5208V29.3228Z" fill="#AFB1B8"/>
<path d="M68.6814 25.6361C68.7159 25.6531 68.746 25.6761 68.7697 25.7036L71.253 28.4959C71.2497 28.452 71.2497 28.4079 71.253 28.3639C71.253 28.3229 71.253 28.2818 71.253 28.2437V25.6039H71.7592V29.3231H71.4671C71.4238 29.3261 71.3804 29.319 71.3414 29.3025C71.3061 29.2841 71.275 29.2602 71.2496 29.2321L68.7697 26.4428C68.7697 26.4867 68.7697 26.5278 68.7697 26.5689C68.7697 26.6099 68.7697 26.6481 68.7697 26.6833V29.3231H68.2839V25.6185H68.5863C68.6191 25.6186 68.6515 25.6246 68.6814 25.6361Z" fill="#AFB1B8"/>
<path d="M76.0364 25.6185V26.0262H73.9777V27.2493H75.6457V27.6423H73.9777V28.9064H76.0364V29.3141H73.3798V25.6185H76.0364Z" fill="#AFB1B8"/>
<path d="M15.1617 2.74242L40.9568 9.06573V31.2237L15.1617 24.9033V2.74242ZM13.5073 0.853638V25.9797L42.6079 33.1154V7.99229L13.5073 0.853638Z" fill="#AFB1B8"/>
<path d="M29.1039 44.7791L0 37.6375V12.514L29.1039 19.6528V44.7791Z" fill="#AFB1B8"/>
<path d="M13.9897 2.4579L39.4484 8.70191L28.6215 18.0518L3.1594 11.8049L13.9897 2.4579ZM13.5073 0.853638L0 12.5146L29.1039 19.6531L42.6078 7.99217L13.5073 0.853638Z" fill="#AFB1B8"/>
<path d="M30.7414 43.3657L42.6078 33.1185L30.7414 30.2062V43.3657Z" fill="#AFB1B8"/>
</svg>
