<svg width="41" height="46" viewBox="0 0 41 46" fill="none" xmlns="http://www.w3.org/2000/svg">
<path fill-rule="evenodd" clip-rule="evenodd" d="M6 0.0869751L13.0078 6.7211L0 6.71344V38.9007H34V26.594L41 33.2208V0.0869751H6ZM33.6924 25.8153L13.8226 7.00493H33.6924V25.8153ZM27.5231 34.1925H5.38008V12.5449H6.9453V32.7267H27.5231V34.1925ZM10.6089 43.1861L9.79102 44.8707L8.97314 43.1861H8.28711L9.48096 45.4322V46.7408H10.1011V45.4322L11.2925 43.1861H10.6089ZM11.6367 46.7408L11.9248 45.9131H13.3018L13.5923 46.7408H14.2368L12.8916 43.1861H12.3374L10.9946 46.7408H11.6367ZM12.6133 43.9405L13.1284 45.4151H12.0981L12.6133 43.9405ZM15.8701 45.3297C15.7806 45.4664 15.7358 45.6169 15.7358 45.7813C15.7358 46.0808 15.8408 46.3241 16.0508 46.5113C16.2624 46.6968 16.5439 46.7896 16.8955 46.7896C17.2471 46.7896 17.5498 46.6944 17.8037 46.504L18.0039 46.7408H18.6924L18.1699 46.1231C18.375 45.8432 18.4775 45.4843 18.4775 45.0464H17.9624C17.9624 45.2857 17.9128 45.503 17.8135 45.6983L17.1274 44.8878L17.3691 44.712C17.54 44.5883 17.6629 44.4646 17.7378 44.3409C17.8127 44.2156 17.8501 44.0788 17.8501 43.9307C17.8501 43.7061 17.7671 43.5181 17.6011 43.3668C17.4367 43.2138 17.2251 43.1373 16.9663 43.1373C16.6798 43.1373 16.452 43.2186 16.2827 43.3814C16.1134 43.5425 16.0288 43.7623 16.0288 44.0406C16.0288 44.1545 16.0557 44.2725 16.1094 44.3946C16.1647 44.5167 16.2616 44.6648 16.3999 44.8389C16.1362 45.0277 15.9596 45.1913 15.8701 45.3297ZM17.4741 46.1158C17.3 46.2492 17.1128 46.316 16.9126 46.316C16.7352 46.316 16.5936 46.2647 16.4878 46.1622C16.382 46.0596 16.3291 45.9262 16.3291 45.7618C16.3291 45.5714 16.4268 45.4021 16.6221 45.254L16.6978 45.2003L17.4741 46.1158ZM16.8369 44.5411C16.6693 44.3344 16.5854 44.1627 16.5854 44.0259C16.5854 43.9071 16.6196 43.8087 16.688 43.7305C16.7563 43.6524 16.8483 43.6133 16.9639 43.6133C17.0713 43.6133 17.16 43.6467 17.23 43.7134C17.3 43.7785 17.335 43.8575 17.335 43.9503C17.335 44.0902 17.2845 44.205 17.1836 44.2945L17.1079 44.3555L16.8369 44.5411ZM22.623 46.4722C22.8672 46.259 23.0072 45.9628 23.043 45.5836H22.4277C22.3952 45.8375 22.3179 46.0189 22.1958 46.128C22.0737 46.237 21.8914 46.2916 21.6489 46.2916C21.3836 46.2916 21.1818 46.1907 21.0435 45.9888C20.9067 45.787 20.8384 45.494 20.8384 45.1099V44.795C20.8416 44.4158 20.9149 44.1285 21.0581 43.9332C21.203 43.7362 21.4097 43.6378 21.6782 43.6378C21.9093 43.6378 22.0843 43.6947 22.2031 43.8087C22.3236 43.921 22.3984 44.1049 22.4277 44.3604H23.043C23.0039 43.9714 22.8647 43.6703 22.6255 43.4571C22.3862 43.2439 22.0705 43.1373 21.6782 43.1373C21.3869 43.1373 21.1297 43.2064 20.9067 43.3448C20.6854 43.4831 20.5153 43.6801 20.3965 43.9356C20.2777 44.1911 20.2183 44.4866 20.2183 44.8218V45.1539C20.2231 45.481 20.2842 45.7683 20.4014 46.0157C20.5186 46.2631 20.6846 46.4543 20.8994 46.5894C21.1159 46.7229 21.3657 46.7896 21.6489 46.7896C22.0542 46.7896 22.3789 46.6838 22.623 46.4722ZM26.2534 45.9742C26.3739 45.7105 26.4341 45.4045 26.4341 45.0562V44.8585C26.4325 44.5118 26.3706 44.2082 26.2485 43.9478C26.1265 43.6858 25.9531 43.4856 25.7285 43.3472C25.5055 43.2073 25.2492 43.1373 24.9595 43.1373C24.6698 43.1373 24.4126 43.2081 24.188 43.3497C23.965 43.4896 23.7917 43.6923 23.668 43.9576C23.5459 44.2229 23.4849 44.5289 23.4849 44.8755V45.0757C23.4865 45.4159 23.5483 45.7162 23.6704 45.9766C23.7941 46.237 23.9683 46.438 24.1929 46.5797C24.4191 46.7196 24.6763 46.7896 24.9644 46.7896C25.2557 46.7896 25.5129 46.7196 25.7358 46.5797C25.9604 46.438 26.133 46.2362 26.2534 45.9742ZM25.5918 43.9649C25.7415 44.1749 25.8164 44.4768 25.8164 44.8707V45.0562C25.8164 45.4566 25.7423 45.761 25.5942 45.9693C25.4478 46.1776 25.2378 46.2818 24.9644 46.2818C24.6942 46.2818 24.4826 46.1752 24.3296 45.962C24.1782 45.7488 24.1025 45.4468 24.1025 45.0562V44.8511C24.1058 44.4686 24.1823 44.1732 24.332 43.9649C24.4834 43.7549 24.6925 43.65 24.9595 43.65C25.2329 43.65 25.4437 43.7549 25.5918 43.9649Z" fill="#AFB1B8"/>
</svg>
