<svg width="85" height="42" viewBox="0 0 85 42" fill="none" xmlns="http://www.w3.org/2000/svg">
<path d="M13.1462 13.1899H13.1433C10.7453 13.1899 8.80127 14.9175 8.80127 17.0485V17.0511C8.80127 19.1822 10.7453 20.9098 13.1433 20.9098H13.1462C15.5442 20.9098 17.4882 19.1822 17.4882 17.0511V17.0485C17.4882 14.9175 15.5442 13.1899 13.1462 13.1899Z" fill="#2196F3"/>
<path d="M45.195 11.9563C45.1882 8.99633 43.8623 6.15926 41.5074 4.06599C39.1525 1.97271 35.9604 0.793708 32.6297 0.786987V0.786987C29.298 0.792365 26.1045 1.97078 23.7484 4.0642C21.3922 6.15762 20.0655 8.99545 20.0587 11.9563V28.2792C20.0587 28.2792 45.1922 25.7914 45.195 11.9589V11.9563Z" fill="#2196F3"/>
<path d="M0 33.6365C0.00604098 35.6961 0.929149 37.6698 2.56761 39.1264C4.20607 40.583 6.42668 41.404 8.74418 41.4101C11.0612 41.4041 13.2814 40.5834 14.9197 39.1273C16.5581 37.6713 17.4816 35.6982 17.4884 33.639V22.2814C17.4884 22.2814 0 24.0136 0 33.6365ZM8.74418 35.6715C8.2913 35.6715 7.84859 35.5521 7.47203 35.3285C7.09548 35.1049 6.80199 34.7871 6.62868 34.4153C6.45537 34.0434 6.41002 33.6342 6.49838 33.2395C6.58673 32.8448 6.80481 32.4822 7.12505 32.1976C7.44528 31.913 7.85328 31.7192 8.29746 31.6406C8.74164 31.5621 9.20204 31.6024 9.62045 31.7564C10.0389 31.9105 10.3965 32.1713 10.6481 32.5059C10.8997 32.8406 11.034 33.234 11.034 33.6365C11.0351 33.9044 10.9767 34.1698 10.8622 34.4176C10.7476 34.6654 10.5791 34.8906 10.3664 35.0804C10.1536 35.2702 9.90081 35.4207 9.62244 35.5235C9.34406 35.6262 9.04561 35.6791 8.74418 35.6791V35.6715Z" fill="#2196F3"/>
<path d="M24.7302 32.0283V36.2939H23.8513V32.0283H24.7302ZM26.4294 33.8506V34.5361H24.4899V33.8506H26.4294ZM26.6345 32.0283V32.7168H24.4899V32.0283H26.6345ZM30.6481 34.0615V34.2637C30.6481 34.5879 30.6042 34.8789 30.5163 35.1367C30.4284 35.3945 30.3044 35.6143 30.1442 35.7959C29.9841 35.9756 29.7927 36.1133 29.57 36.209C29.3493 36.3047 29.1042 36.3525 28.8347 36.3525C28.5671 36.3525 28.322 36.3047 28.0993 36.209C27.8786 36.1133 27.6872 35.9756 27.5251 35.7959C27.363 35.6143 27.237 35.3945 27.1472 35.1367C27.0593 34.8789 27.0153 34.5879 27.0153 34.2637V34.0615C27.0153 33.7354 27.0593 33.4443 27.1472 33.1885C27.235 32.9307 27.3591 32.7109 27.5192 32.5293C27.6813 32.3477 27.8727 32.209 28.0934 32.1133C28.3161 32.0176 28.5612 31.9697 28.8288 31.9697C29.0983 31.9697 29.3434 32.0176 29.5641 32.1133C29.7868 32.209 29.9782 32.3477 30.1384 32.5293C30.3005 32.7109 30.4255 32.9307 30.5134 33.1885C30.6032 33.4443 30.6481 33.7354 30.6481 34.0615ZM29.7604 34.2637V34.0557C29.7604 33.8291 29.7399 33.6299 29.6989 33.458C29.6579 33.2861 29.5974 33.1416 29.5173 33.0244C29.4372 32.9072 29.3395 32.8193 29.2243 32.7607C29.1091 32.7002 28.9772 32.6699 28.8288 32.6699C28.6804 32.6699 28.5485 32.7002 28.4333 32.7607C28.32 32.8193 28.2233 32.9072 28.1432 33.0244C28.0651 33.1416 28.0056 33.2861 27.9645 33.458C27.9235 33.6299 27.903 33.8291 27.903 34.0557V34.2637C27.903 34.4883 27.9235 34.6875 27.9645 34.8613C28.0056 35.0332 28.0661 35.1787 28.1462 35.2979C28.2263 35.415 28.3239 35.5039 28.4391 35.5645C28.5544 35.625 28.6862 35.6553 28.8347 35.6553C28.9831 35.6553 29.1149 35.625 29.2302 35.5645C29.3454 35.5039 29.4421 35.415 29.5202 35.2979C29.5983 35.1787 29.6579 35.0332 29.6989 34.8613C29.7399 34.6875 29.7604 34.4883 29.7604 34.2637ZM33.5016 35.1777C33.5016 35.1016 33.4899 35.0332 33.4665 34.9727C33.445 34.9102 33.404 34.8535 33.3434 34.8027C33.2829 34.75 33.1979 34.6982 33.0886 34.6475C32.9792 34.5967 32.8376 34.5439 32.6638 34.4893C32.4704 34.4268 32.2868 34.3564 32.113 34.2783C31.9411 34.2002 31.7888 34.1094 31.6559 34.0059C31.5251 33.9004 31.4216 33.7783 31.3454 33.6396C31.2712 33.501 31.2341 33.3398 31.2341 33.1562C31.2341 32.9785 31.2731 32.8174 31.3513 32.6729C31.4294 32.5264 31.5388 32.4014 31.6794 32.2979C31.82 32.1924 31.986 32.1113 32.1774 32.0547C32.3708 31.998 32.5827 31.9697 32.8132 31.9697C33.1276 31.9697 33.402 32.0264 33.6364 32.1396C33.8708 32.2529 34.0524 32.4082 34.1813 32.6055C34.3122 32.8027 34.3776 33.0283 34.3776 33.2822H33.5046C33.5046 33.1572 33.4782 33.0479 33.4255 32.9541C33.3747 32.8584 33.2966 32.7832 33.1911 32.7285C33.0876 32.6738 32.9567 32.6465 32.7985 32.6465C32.6462 32.6465 32.5192 32.6699 32.4177 32.7168C32.3161 32.7617 32.2399 32.8232 32.1891 32.9014C32.1384 32.9775 32.113 33.0635 32.113 33.1592C32.113 33.2314 32.1306 33.2969 32.1657 33.3555C32.2028 33.4141 32.2575 33.4688 32.3298 33.5195C32.402 33.5703 32.4909 33.6182 32.5964 33.6631C32.7018 33.708 32.8239 33.752 32.9626 33.7949C33.195 33.8652 33.3991 33.9443 33.5749 34.0322C33.7526 34.1201 33.9011 34.2188 34.0202 34.3281C34.1393 34.4375 34.2292 34.5615 34.2897 34.7002C34.3503 34.8389 34.3806 34.9961 34.3806 35.1719C34.3806 35.3574 34.3444 35.5234 34.2722 35.6699C34.1999 35.8164 34.0954 35.9404 33.9587 36.042C33.822 36.1436 33.6589 36.2207 33.4694 36.2734C33.28 36.3262 33.0681 36.3525 32.8337 36.3525C32.6227 36.3525 32.4147 36.3252 32.2097 36.2705C32.0046 36.2139 31.8181 36.1289 31.6501 36.0156C31.4841 35.9023 31.3513 35.7578 31.2516 35.582C31.152 35.4062 31.1022 35.1982 31.1022 34.958H31.9841C31.9841 35.0908 32.0046 35.2031 32.0456 35.2949C32.0866 35.3867 32.1442 35.4609 32.2184 35.5176C32.2946 35.5742 32.3845 35.6152 32.488 35.6406C32.5934 35.666 32.7087 35.6787 32.8337 35.6787C32.986 35.6787 33.111 35.6572 33.2087 35.6143C33.3083 35.5713 33.3815 35.5117 33.4284 35.4355C33.4772 35.3594 33.5016 35.2734 33.5016 35.1777ZM36.8854 32.0283V36.2939H36.0095V32.0283H36.8854ZM38.1979 32.0283V32.7168H34.7175V32.0283H38.1979ZM41.5612 35.6084V36.2939H39.2907V35.6084H41.5612ZM39.5778 32.0283V36.2939H38.6989V32.0283H39.5778ZM41.2653 33.7656V34.4336H39.2907V33.7656H41.2653ZM41.5583 32.0283V32.7168H39.2907V32.0283H41.5583ZM42.0739 32.0283H43.6647C43.9909 32.0283 44.2712 32.0771 44.5056 32.1748C44.7419 32.2725 44.9235 32.417 45.0505 32.6084C45.1774 32.7998 45.2409 33.0352 45.2409 33.3145C45.2409 33.543 45.2018 33.7393 45.1237 33.9033C45.0475 34.0654 44.9391 34.2012 44.7985 34.3105C44.6599 34.418 44.4968 34.5039 44.3093 34.5684L44.0309 34.7148H42.6481L42.6423 34.0293H43.6706C43.8249 34.0293 43.9528 34.002 44.0544 33.9473C44.1559 33.8926 44.2321 33.8164 44.2829 33.7188C44.3356 33.6211 44.362 33.5078 44.362 33.3789C44.362 33.2422 44.3366 33.124 44.2858 33.0244C44.235 32.9248 44.1579 32.8486 44.0544 32.7959C43.9509 32.7432 43.821 32.7168 43.6647 32.7168H42.9528V36.2939H42.0739V32.0283ZM44.4587 36.2939L43.486 34.3926L44.4147 34.3867L45.3991 36.2529V36.2939H44.4587ZM49.0729 34.7734H47.986V34.0879H49.0729C49.2409 34.0879 49.3776 34.0605 49.4831 34.0059C49.5886 33.9492 49.6657 33.8711 49.7145 33.7715C49.7634 33.6719 49.7878 33.5596 49.7878 33.4346C49.7878 33.3076 49.7634 33.1895 49.7145 33.0801C49.6657 32.9707 49.5886 32.8828 49.4831 32.8164C49.3776 32.75 49.2409 32.7168 49.0729 32.7168H48.2907V36.2939H47.4118V32.0283H49.0729C49.4069 32.0283 49.6931 32.0889 49.9313 32.21C50.1716 32.3291 50.3552 32.4941 50.4821 32.7051C50.6091 32.916 50.6725 33.1572 50.6725 33.4287C50.6725 33.7041 50.6091 33.9424 50.4821 34.1436C50.3552 34.3447 50.1716 34.5 49.9313 34.6094C49.6931 34.7188 49.4069 34.7734 49.0729 34.7734ZM54.1413 35.6084V36.2939H51.8708V35.6084H54.1413ZM52.1579 32.0283V36.2939H51.279V32.0283H52.1579ZM53.8454 33.7656V34.4336H51.8708V33.7656H53.8454ZM54.1384 32.0283V32.7168H51.8708V32.0283H54.1384ZM56.6198 32.0283V36.2939H55.7438V32.0283H56.6198ZM57.9323 32.0283V32.7168H54.4518V32.0283H57.9323ZM61.2956 35.6084V36.2939H59.0251V35.6084H61.2956ZM59.3122 32.0283V36.2939H58.4333V32.0283H59.3122ZM60.9997 33.7656V34.4336H59.0251V33.7656H60.9997ZM61.2927 32.0283V32.7168H59.0251V32.0283H61.2927ZM61.8083 32.0283H63.3991C63.7253 32.0283 64.0056 32.0771 64.2399 32.1748C64.4763 32.2725 64.6579 32.417 64.7849 32.6084C64.9118 32.7998 64.9753 33.0352 64.9753 33.3145C64.9753 33.543 64.9362 33.7393 64.8581 33.9033C64.7819 34.0654 64.6735 34.2012 64.5329 34.3105C64.3942 34.418 64.2311 34.5039 64.0436 34.5684L63.7653 34.7148H62.3825L62.3766 34.0293H63.405C63.5593 34.0293 63.6872 34.002 63.7888 33.9473C63.8903 33.8926 63.9665 33.8164 64.0173 33.7188C64.07 33.6211 64.0964 33.5078 64.0964 33.3789C64.0964 33.2422 64.071 33.124 64.0202 33.0244C63.9694 32.9248 63.8923 32.8486 63.7888 32.7959C63.6852 32.7432 63.5554 32.7168 63.3991 32.7168H62.6872V36.2939H61.8083V32.0283ZM64.1931 36.2939L63.2204 34.3926L64.1491 34.3867L65.1335 36.2529V36.2939H64.1931ZM67.8727 35.1777C67.8727 35.1016 67.861 35.0332 67.8376 34.9727C67.8161 34.9102 67.7751 34.8535 67.7145 34.8027C67.654 34.75 67.569 34.6982 67.4597 34.6475C67.3503 34.5967 67.2087 34.5439 67.0349 34.4893C66.8415 34.4268 66.6579 34.3564 66.4841 34.2783C66.3122 34.2002 66.1599 34.1094 66.027 34.0059C65.8962 33.9004 65.7927 33.7783 65.7165 33.6396C65.6423 33.501 65.6052 33.3398 65.6052 33.1562C65.6052 32.9785 65.6442 32.8174 65.7224 32.6729C65.8005 32.5264 65.9099 32.4014 66.0505 32.2979C66.1911 32.1924 66.3571 32.1113 66.5485 32.0547C66.7419 31.998 66.9538 31.9697 67.1843 31.9697C67.4987 31.9697 67.7731 32.0264 68.0075 32.1396C68.2419 32.2529 68.4235 32.4082 68.5524 32.6055C68.6833 32.8027 68.7487 33.0283 68.7487 33.2822H67.8757C67.8757 33.1572 67.8493 33.0479 67.7966 32.9541C67.7458 32.8584 67.6677 32.7832 67.5622 32.7285C67.4587 32.6738 67.3278 32.6465 67.1696 32.6465C67.0173 32.6465 66.8903 32.6699 66.7888 32.7168C66.6872 32.7617 66.611 32.8232 66.5602 32.9014C66.5095 32.9775 66.4841 33.0635 66.4841 33.1592C66.4841 33.2314 66.5016 33.2969 66.5368 33.3555C66.5739 33.4141 66.6286 33.4688 66.7009 33.5195C66.7731 33.5703 66.862 33.6182 66.9675 33.6631C67.0729 33.708 67.195 33.752 67.3337 33.7949C67.5661 33.8652 67.7702 33.9443 67.946 34.0322C68.1237 34.1201 68.2722 34.2188 68.3913 34.3281C68.5104 34.4375 68.6003 34.5615 68.6608 34.7002C68.7214 34.8389 68.7516 34.9961 68.7516 35.1719C68.7516 35.3574 68.7155 35.5234 68.6432 35.6699C68.571 35.8164 68.4665 35.9404 68.3298 36.042C68.1931 36.1436 68.03 36.2207 67.8405 36.2734C67.6511 36.3262 67.4391 36.3525 67.2048 36.3525C66.9938 36.3525 66.7858 36.3252 66.5807 36.2705C66.3757 36.2139 66.1891 36.1289 66.0212 36.0156C65.8552 35.9023 65.7224 35.7578 65.6227 35.582C65.5231 35.4062 65.4733 35.1982 65.4733 34.958H66.3552C66.3552 35.0908 66.3757 35.2031 66.4167 35.2949C66.4577 35.3867 66.5153 35.4609 66.5895 35.5176C66.6657 35.5742 66.7556 35.6152 66.8591 35.6406C66.9645 35.666 67.0798 35.6787 67.2048 35.6787C67.3571 35.6787 67.4821 35.6572 67.5798 35.6143C67.6794 35.5713 67.7526 35.5117 67.7995 35.4355C67.8483 35.3594 67.8727 35.2734 67.8727 35.1777Z" fill="#2196F3"/>
</svg>
